<svg xmlns="http://www.w3.org/2000/svg" xmlns:xlink="http://www.w3.org/1999/xlink" width="500" zoomAndPan="magnify" viewBox="0 0 375 374.999991" height="500" preserveAspectRatio="xMidYMid meet" version="1.0"><defs><g/><clipPath id="4b85c3b1b1"><path d="M 171 96.261719 L 222 96.261719 L 222 159 L 171 159 Z M 171 96.261719 " clip-rule="nonzero"/></clipPath><clipPath id="aa91aee7f4"><path d="M 112.5 113 L 190 113 L 190 144 L 112.5 144 Z M 112.5 113 " clip-rule="nonzero"/></clipPath></defs><g clip-path="url(#4b85c3b1b1)"><path fill="#17a17a" d="M 171.816406 121.730469 C 171.890625 118.679688 172.464844 114.804688 172.464844 114.804688 C 172.464844 114.804688 174.507812 96.503906 180.464844 96.394531 C 186.421875 96.285156 188.398438 113.835938 188.398438 113.835938 L 187.390625 113.835938 L 187.390625 113.296875 C 187.390625 113.296875 186.566406 107.878906 184.664062 102.421875 C 182.761719 96.96875 180.394531 97.433594 180.394531 97.433594 C 173.21875 98.90625 172.785156 126 172.785156 126 L 171.675781 126 C 171.640625 126.035156 171.746094 124.742188 171.816406 121.730469 Z M 171.640625 131.273438 C 171.640625 131.273438 172.285156 156.96875 180 158.941406 C 180 158.941406 183.589844 159.984375 186.101562 152.160156 C 188.613281 144.335938 188.359375 142.183594 188.359375 142.183594 L 187.105469 142.148438 C 187.105469 142.148438 186.855469 146.667969 185.273438 151.40625 C 183.695312 156.144531 181.867188 157.363281 181.867188 157.363281 C 181.867188 157.363281 180.539062 158.621094 179.066406 157.363281 C 177.59375 156.105469 175.910156 152.914062 174.796875 147.925781 C 173.683594 142.9375 172.570312 133.859375 172.644531 130.773438 C 172.714844 127.6875 172.644531 130.773438 172.644531 130.773438 Z M 195.824219 113.691406 L 196.757812 113.691406 C 196.757812 113.691406 198.660156 104.21875 201.242188 103.824219 C 203.828125 103.429688 205.910156 114.015625 205.910156 114.015625 L 207.058594 114.015625 C 207.058594 114.015625 205.585938 103.105469 201.601562 102.710938 C 197.621094 102.316406 195.898438 112.21875 195.824219 113.691406 Z M 201.601562 155.355469 C 205.550781 154.957031 207.058594 144.050781 207.058594 144.050781 L 205.910156 144.050781 C 205.910156 144.050781 203.828125 154.671875 201.242188 154.242188 C 198.660156 153.847656 196.757812 144.371094 196.757812 144.371094 L 195.824219 144.371094 C 195.898438 145.84375 197.65625 155.75 201.601562 155.355469 Z M 214.269531 113.691406 L 215.382812 113.691406 C 215.382812 113.691406 216.351562 107.734375 217.824219 107.089844 C 217.824219 107.089844 218.359375 106.835938 219.1875 109.132812 C 220.011719 111.429688 220.335938 113.871094 220.335938 113.871094 L 221.484375 113.871094 C 221.484375 113.871094 220.300781 105.6875 217.894531 106.011719 C 215.453125 106.335938 214.953125 109.957031 214.269531 113.691406 Z M 217.859375 152.015625 C 220.261719 152.339844 221.449219 144.15625 221.449219 144.15625 L 220.300781 144.15625 C 220.300781 144.15625 219.976562 146.632812 219.152344 148.894531 C 218.324219 151.15625 217.785156 150.941406 217.785156 150.941406 C 216.316406 150.292969 215.347656 144.335938 215.347656 144.335938 L 214.234375 144.335938 C 214.953125 148.070312 215.453125 151.695312 217.859375 152.015625 Z M 217.859375 152.015625 " fill-opacity="1" fill-rule="nonzero"/></g><path fill="#17a17a" d="M 188.863281 127.6875 C 188.863281 133.25 188.46875 138.453125 187.75 142.9375 L 180.898438 142.9375 C 180.464844 141.753906 180.109375 140.605469 179.785156 139.492188 C 178.996094 136.800781 178.527344 134.324219 178.277344 132.101562 L 172.25 131.886719 L 115.011719 129.730469 L 113.074219 129.15625 L 115.15625 128.441406 L 172.214844 126.179688 L 178.207031 125.929688 C 178.492188 122.410156 179.390625 119.753906 180.394531 117.816406 C 181.148438 116.3125 181.972656 115.269531 182.582031 114.589844 C 183.15625 113.941406 183.550781 113.65625 183.550781 113.65625 L 187.964844 113.65625 C 188.503906 117.890625 188.863281 122.625 188.863281 127.6875 Z M 188.863281 127.6875 " fill-opacity="1" fill-rule="nonzero"/><g clip-path="url(#aa91aee7f4)"><path fill="#17a17a" d="M 188.398438 127.6875 C 188.398438 132.746094 188.074219 137.804688 187.320312 142.828125 C 187.464844 142.722656 187.609375 142.613281 187.75 142.507812 C 185.453125 142.507812 183.195312 142.507812 180.898438 142.507812 C 181.039062 142.613281 181.183594 142.722656 181.328125 142.828125 C 180.109375 139.347656 179.140625 135.761719 178.742188 132.101562 C 178.707031 131.847656 178.566406 131.667969 178.3125 131.667969 C 176.304688 131.597656 174.292969 131.527344 172.25 131.453125 C 171.53125 131.417969 170.8125 131.417969 170.09375 131.382812 C 168.300781 131.3125 166.472656 131.238281 164.675781 131.167969 C 162.09375 131.058594 159.546875 130.988281 156.960938 130.878906 C 153.910156 130.773438 150.859375 130.664062 147.847656 130.519531 C 144.652344 130.414062 141.496094 130.269531 138.300781 130.164062 C 135.324219 130.054688 132.308594 129.945312 129.332031 129.839844 C 126.816406 129.730469 124.304688 129.660156 121.792969 129.550781 C 120.109375 129.480469 118.421875 129.410156 116.734375 129.371094 C 116.304688 129.371094 115.835938 129.335938 115.40625 129.335938 C 115.300781 129.335938 115.191406 129.335938 115.082031 129.335938 C 115.046875 129.335938 115.046875 129.335938 115.011719 129.335938 C 115.261719 129.371094 114.90625 129.300781 114.796875 129.265625 C 114.257812 129.085938 113.71875 128.941406 113.183594 128.761719 C 113.183594 129.050781 113.183594 129.335938 113.183594 129.625 C 113.71875 129.445312 114.292969 129.230469 114.832031 129.050781 C 114.941406 129.015625 115.082031 128.976562 115.15625 128.941406 C 115.226562 128.90625 115.191406 128.941406 115.121094 128.941406 C 115.121094 128.941406 115.15625 128.941406 115.191406 128.941406 C 115.476562 128.941406 115.730469 128.90625 116.015625 128.90625 C 117.453125 128.835938 118.851562 128.796875 120.285156 128.726562 C 122.621094 128.621094 124.953125 128.546875 127.285156 128.441406 C 130.191406 128.332031 133.0625 128.222656 135.96875 128.082031 C 139.125 127.972656 142.285156 127.828125 145.441406 127.722656 C 148.527344 127.613281 151.613281 127.472656 154.738281 127.363281 C 157.464844 127.253906 160.191406 127.148438 162.882812 127.039062 C 164.929688 126.96875 166.9375 126.898438 168.984375 126.789062 C 169.988281 126.753906 171.027344 126.71875 172.035156 126.679688 C 173.757812 126.609375 175.476562 126.539062 177.199219 126.464844 C 177.523438 126.464844 177.847656 126.429688 178.167969 126.429688 C 178.421875 126.429688 178.601562 126.214844 178.601562 126 C 178.851562 122.839844 179.675781 119.683594 181.363281 116.992188 C 181.757812 116.382812 182.1875 115.773438 182.65625 115.234375 C 182.90625 114.945312 183.15625 114.695312 183.410156 114.445312 C 183.515625 114.371094 183.589844 114.265625 183.695312 114.195312 C 183.949219 113.976562 183.589844 114.300781 183.515625 114.195312 C 183.550781 114.230469 184.164062 114.195312 184.199219 114.195312 C 184.664062 114.195312 185.132812 114.195312 185.5625 114.195312 C 186.351562 114.195312 187.105469 114.195312 187.894531 114.195312 C 187.75 114.085938 187.609375 113.976562 187.464844 113.871094 C 188.144531 118.390625 188.398438 123.019531 188.398438 127.6875 C 188.398438 128.261719 189.292969 128.261719 189.292969 127.6875 C 189.292969 122.949219 189.007812 118.25 188.359375 113.582031 C 188.324219 113.402344 188.109375 113.261719 187.929688 113.261719 C 187.214844 113.261719 186.496094 113.261719 185.777344 113.261719 C 185.058594 113.261719 184.269531 113.1875 183.550781 113.261719 C 183.085938 113.296875 182.65625 113.90625 182.367188 114.195312 C 181.867188 114.730469 181.433594 115.304688 181.039062 115.878906 C 180.144531 117.171875 179.460938 118.605469 178.960938 120.078125 C 178.277344 121.980469 177.917969 123.953125 177.738281 125.964844 C 177.882812 125.820312 178.027344 125.675781 178.167969 125.53125 C 176.160156 125.605469 174.1875 125.675781 172.175781 125.785156 C 171.460938 125.820312 170.707031 125.855469 169.988281 125.855469 C 168.15625 125.929688 166.328125 126 164.535156 126.070312 C 161.949219 126.179688 159.367188 126.285156 156.78125 126.394531 C 153.730469 126.503906 150.683594 126.644531 147.632812 126.753906 C 144.4375 126.859375 141.28125 127.003906 138.085938 127.113281 C 135.109375 127.21875 132.128906 127.363281 129.152344 127.472656 C 126.675781 127.578125 124.164062 127.648438 121.6875 127.757812 C 120.035156 127.828125 118.386719 127.902344 116.734375 127.9375 C 116.015625 127.972656 115.300781 127.9375 114.582031 128.152344 C 114.042969 128.332031 113.503906 128.546875 112.929688 128.726562 C 112.535156 128.871094 112.5 129.445312 112.929688 129.589844 C 113.503906 129.765625 114.042969 129.910156 114.617188 130.089844 C 114.761719 130.125 114.90625 130.164062 115.046875 130.199219 C 115.335938 130.234375 115.621094 130.234375 115.875 130.234375 C 117.308594 130.269531 118.742188 130.339844 120.179688 130.378906 C 122.511719 130.449219 124.84375 130.558594 127.175781 130.628906 C 130.082031 130.738281 132.992188 130.84375 135.898438 130.953125 C 139.054688 131.058594 142.25 131.203125 145.40625 131.3125 C 148.527344 131.417969 151.613281 131.5625 154.738281 131.667969 C 157.464844 131.777344 160.191406 131.886719 162.917969 131.992188 C 164.964844 132.0625 166.972656 132.136719 169.019531 132.207031 C 170.023438 132.242188 171.066406 132.28125 172.070312 132.316406 C 173.828125 132.386719 175.550781 132.457031 177.308594 132.496094 C 177.632812 132.496094 177.953125 132.53125 178.277344 132.53125 C 178.132812 132.386719 177.992188 132.242188 177.847656 132.101562 C 178.277344 135.832031 179.210938 139.492188 180.464844 143.046875 C 180.539062 143.222656 180.683594 143.367188 180.898438 143.367188 C 183.195312 143.367188 185.453125 143.367188 187.75 143.367188 C 187.929688 143.367188 188.144531 143.222656 188.183594 143.046875 C 188.972656 137.949219 189.292969 132.816406 189.292969 127.6875 C 189.292969 127.113281 188.398438 127.113281 188.398438 127.6875 Z M 188.398438 127.6875 " fill-opacity="1" fill-rule="nonzero"/></g><path fill="#17a17a" d="M 183.550781 113.726562 C 181.902344 113.726562 180.25 113.726562 178.601562 113.726562 C 174.6875 113.726562 170.742188 113.761719 166.832031 113.761719 C 162.058594 113.761719 157.320312 113.796875 152.546875 113.796875 C 148.421875 113.796875 144.332031 113.835938 140.203125 113.835938 C 138.230469 113.835938 136.21875 113.796875 134.210938 113.871094 C 134.175781 113.871094 134.140625 113.871094 134.140625 113.871094 C 132.992188 113.871094 132.992188 115.664062 134.140625 115.664062 C 135.789062 115.664062 137.441406 115.664062 139.089844 115.664062 C 143.003906 115.664062 146.949219 115.628906 150.859375 115.628906 C 155.632812 115.628906 160.371094 115.59375 165.144531 115.59375 C 169.269531 115.59375 173.359375 115.558594 177.488281 115.558594 C 179.460938 115.558594 181.472656 115.59375 183.480469 115.519531 C 183.515625 115.519531 183.550781 115.519531 183.550781 115.519531 C 184.699219 115.519531 184.699219 113.726562 183.550781 113.726562 Z M 183.550781 113.726562 " fill-opacity="1" fill-rule="nonzero"/><path fill="#17a17a" d="M 182.261719 116.921875 C 180.429688 116.921875 178.601562 116.921875 176.769531 116.921875 C 172.390625 116.921875 167.976562 116.921875 163.601562 116.957031 C 158.289062 116.957031 153.015625 116.992188 147.703125 116.992188 C 143.109375 116.992188 138.550781 116.992188 133.960938 117.027344 C 131.734375 117.027344 129.507812 116.957031 127.25 117.027344 C 127.214844 117.027344 127.175781 117.027344 127.140625 117.027344 C 125.992188 117.027344 125.992188 118.824219 127.140625 118.824219 C 128.972656 118.824219 130.800781 118.824219 132.632812 118.824219 C 137.007812 118.824219 141.421875 118.824219 145.800781 118.785156 C 151.113281 118.785156 156.386719 118.75 161.699219 118.75 C 166.292969 118.75 170.847656 118.75 175.441406 118.714844 C 177.667969 118.714844 179.890625 118.785156 182.152344 118.714844 C 182.1875 118.714844 182.226562 118.714844 182.261719 118.714844 C 183.410156 118.714844 183.410156 116.921875 182.261719 116.921875 Z M 182.261719 116.921875 " fill-opacity="1" fill-rule="nonzero"/><path fill="#17a17a" d="M 181.113281 138.59375 C 179.316406 138.59375 177.523438 138.59375 175.695312 138.59375 C 171.386719 138.59375 167.117188 138.632812 162.8125 138.632812 C 157.609375 138.632812 152.441406 138.667969 147.238281 138.667969 C 142.75 138.667969 138.265625 138.703125 133.78125 138.703125 C 131.589844 138.703125 129.402344 138.667969 127.214844 138.738281 C 127.175781 138.738281 127.140625 138.738281 127.105469 138.738281 C 125.957031 138.738281 125.957031 140.53125 127.105469 140.53125 C 128.898438 140.53125 130.695312 140.53125 132.523438 140.53125 C 136.832031 140.53125 141.101562 140.496094 145.40625 140.496094 C 150.609375 140.496094 155.777344 140.460938 160.980469 140.460938 C 165.464844 140.460938 169.953125 140.425781 174.4375 140.425781 C 176.625 140.425781 178.816406 140.460938 181.003906 140.390625 C 181.039062 140.390625 181.078125 140.390625 181.113281 140.390625 C 182.261719 140.390625 182.261719 138.59375 181.113281 138.59375 Z M 181.113281 138.59375 " fill-opacity="1" fill-rule="nonzero"/><path fill="#17a17a" d="M 135.539062 143.90625 C 137.296875 143.90625 139.054688 143.90625 140.777344 143.90625 C 144.761719 143.90625 148.707031 143.90625 152.691406 143.871094 C 156.890625 143.871094 161.125 143.871094 165.324219 143.835938 C 167.835938 143.835938 170.347656 143.835938 172.859375 143.835938 C 175.40625 143.835938 177.917969 143.835938 180.464844 143.835938 C 180.609375 143.835938 180.753906 143.835938 180.859375 143.835938 C 182.007812 143.835938 182.007812 142.039062 180.859375 142.039062 C 178.277344 142.039062 175.695312 142.039062 173.109375 142.039062 C 170.921875 142.039062 168.769531 142.039062 166.578125 142.039062 C 162.488281 142.039062 158.359375 142.039062 154.269531 142.074219 C 150.179688 142.074219 146.050781 142.074219 141.960938 142.113281 C 139.84375 142.113281 137.726562 142.039062 135.609375 142.113281 C 135.574219 142.113281 135.539062 142.113281 135.503906 142.113281 C 134.390625 142.113281 134.390625 143.90625 135.539062 143.90625 Z M 135.539062 143.90625 " fill-opacity="1" fill-rule="nonzero"/><path fill="#17a17a" d="M 190.621094 142.003906 C 189.796875 142.003906 188.933594 142.003906 188.109375 142.003906 C 188.003906 142.003906 187.859375 142.003906 187.75 142.003906 C 187.285156 142.003906 186.816406 142.398438 186.855469 142.902344 C 186.890625 143.402344 187.25 143.796875 187.75 143.796875 C 188.578125 143.796875 189.4375 143.796875 190.261719 143.796875 C 190.371094 143.796875 190.515625 143.796875 190.621094 143.796875 C 191.089844 143.796875 191.554688 143.402344 191.519531 142.902344 C 191.519531 142.433594 191.125 142.003906 190.621094 142.003906 Z M 190.621094 142.003906 " fill-opacity="1" fill-rule="nonzero"/><path fill="#17a17a" d="M 195.824219 144.371094 L 181.433594 144.371094 C 181.257812 143.90625 181.078125 143.402344 180.898438 142.9375 L 187.75 142.9375 C 188.46875 138.453125 188.863281 133.25 188.863281 127.6875 C 188.863281 122.664062 188.539062 117.890625 187.964844 113.691406 L 195.859375 113.691406 C 195.824219 113.691406 192.378906 131.132812 195.824219 144.371094 Z M 195.824219 144.371094 " fill-opacity="1" fill-rule="nonzero"/><path fill="#17a17a" d="M 232.894531 113.691406 L 215.347656 113.691406 C 212.90625 123.847656 213.695312 134.074219 214.523438 139.816406 L 231.996094 139.816406 C 232.929688 139.78125 233.828125 139.421875 234.761719 139.207031 C 235.730469 138.953125 236.699219 138.703125 237.667969 138.453125 C 239.640625 137.949219 241.652344 137.484375 243.625 136.910156 C 244.304688 136.730469 244.59375 137.769531 243.910156 137.984375 C 241.902344 138.558594 239.820312 139.027344 237.8125 139.5625 C 236.804688 139.816406 235.800781 140.101562 234.796875 140.355469 C 233.898438 140.570312 233.003906 140.890625 232.070312 140.929688 L 214.738281 140.929688 C 215.097656 143.117188 215.382812 144.410156 215.382812 144.410156 L 232.214844 144.410156 C 232.214844 144.410156 260.632812 139.601562 261.675781 129.875 C 262.5 121.910156 232.894531 113.691406 232.894531 113.691406 Z M 234.546875 137.304688 C 234.472656 137.410156 234.332031 137.554688 234.222656 137.554688 C 233.933594 137.589844 233.648438 137.699219 233.324219 137.804688 C 233.039062 137.914062 232.714844 137.984375 232.429688 137.984375 C 232.390625 137.984375 232.390625 137.984375 232.355469 137.984375 L 227.941406 137.984375 C 227.226562 137.984375 227.226562 136.871094 227.941406 136.871094 L 232.355469 136.871094 C 232.429688 136.871094 232.464844 136.871094 232.5 136.871094 C 233.003906 136.800781 233.433594 136.585938 233.933594 136.476562 C 234.078125 136.441406 234.222656 136.476562 234.367188 136.550781 C 234.472656 136.621094 234.582031 136.730469 234.617188 136.871094 C 234.617188 137.015625 234.582031 137.195312 234.546875 137.304688 Z M 236.410156 117.960938 C 236.375 118.105469 236.269531 118.210938 236.160156 118.285156 C 236.050781 118.355469 235.875 118.390625 235.730469 118.355469 C 235.476562 118.285156 235.226562 118.140625 234.976562 118.105469 C 234.941406 118.105469 234.941406 118.105469 234.902344 118.105469 C 234.507812 117.960938 234.113281 117.816406 233.757812 117.675781 C 233.398438 117.53125 233.039062 117.386719 232.679688 117.28125 L 226.867188 117.28125 C 226.148438 117.28125 226.148438 116.167969 226.867188 116.167969 L 232.785156 116.167969 C 232.859375 116.167969 232.894531 116.167969 232.964844 116.203125 C 233.359375 116.273438 233.71875 116.453125 234.078125 116.597656 C 234.472656 116.742188 234.832031 116.886719 235.226562 117.027344 C 235.226562 117.027344 235.261719 117.027344 235.261719 117.027344 C 235.550781 117.0625 235.800781 117.242188 236.050781 117.316406 C 236.195312 117.351562 236.304688 117.457031 236.375 117.566406 C 236.449219 117.675781 236.449219 117.816406 236.410156 117.960938 Z M 236.410156 117.960938 " fill-opacity="1" fill-rule="nonzero"/><path fill="#17a17a" d="M 213.375 140.890625 C 213.625 142.074219 213.910156 143.222656 214.269531 144.371094 L 196.757812 144.371094 C 196.757812 144.371094 193.671875 128.90625 196.757812 113.691406 L 214.269531 113.691406 C 214.269531 113.691406 211.039062 127.472656 213.195312 139.816406 L 207.199219 139.816406 C 206.484375 139.816406 206.484375 140.929688 207.199219 140.929688 L 213.375 140.929688 Z M 213.375 140.890625 " fill-opacity="1" fill-rule="nonzero"/><g fill="#ffffff" fill-opacity="1"><g transform="translate(76.880875, 255.013898)"><g><path d="M 33.125 -57.046875 L 56.15625 0 L 42.1875 0 L 37.96875 -11.40625 L 16.25 -11.40625 L 12.03125 0 L -1.9375 0 L 21.09375 -57.046875 Z M 33.546875 -22.828125 L 27.171875 -39.421875 L 27.046875 -39.421875 L 20.671875 -22.828125 Z M 33.546875 -22.828125 "/></g></g></g><g fill="#ffffff" fill-opacity="1"><g transform="translate(127.638325, 255.013898)"><g><path d="M 17.15625 -35.40625 L 17.15625 0 L 4.15625 0 L 4.15625 -57.046875 L 17.15625 -57.046875 L 39.828125 -21.640625 L 39.96875 -21.640625 L 39.96875 -57.046875 L 52.96875 -57.046875 L 52.96875 0 L 39.96875 0 L 17.28125 -35.40625 Z M 17.15625 -35.40625 "/></g></g></g><g fill="#ffffff" fill-opacity="1"><g transform="translate(181.300171, 255.013898)"><g><path d="M -2.078125 -57.046875 L 13.546875 -57.046875 L 25.453125 -38.796875 L 37.34375 -57.046875 L 52.96875 -57.046875 L 31.953125 -25.59375 L 31.953125 0 L 18.953125 0 L 18.953125 -25.59375 Z M -2.078125 -57.046875 "/></g></g></g><g fill="#17a17a" fill-opacity="1"><g transform="translate(228.74415, 255.013898)"><g><path d="M 34.515625 -11.75 C 36.492188 -11.75 38.414062 -12.046875 40.28125 -12.640625 C 42.144531 -13.242188 43.515625 -13.828125 44.390625 -14.390625 L 45.71875 -15.28125 L 51.25 -4.21875 C 51.0625 -4.082031 50.804688 -3.894531 50.484375 -3.65625 C 50.160156 -3.425781 49.410156 -3 48.234375 -2.375 C 47.054688 -1.757812 45.800781 -1.21875 44.46875 -0.75 C 43.132812 -0.289062 41.382812 0.117188 39.21875 0.484375 C 37.050781 0.847656 34.8125 1.03125 32.5 1.03125 C 27.195312 1.03125 22.171875 -0.269531 17.421875 -2.875 C 12.671875 -5.476562 8.84375 -9.0625 5.9375 -13.625 C 3.039062 -18.1875 1.59375 -23.117188 1.59375 -28.421875 C 1.59375 -32.429688 2.441406 -36.28125 4.140625 -39.96875 C 5.847656 -43.65625 8.117188 -46.8125 10.953125 -49.4375 C 13.796875 -52.070312 17.109375 -54.171875 20.890625 -55.734375 C 24.671875 -57.304688 28.539062 -58.09375 32.5 -58.09375 C 36.1875 -58.09375 39.585938 -57.65625 42.703125 -56.78125 C 45.816406 -55.90625 48.019531 -55.03125 49.3125 -54.15625 L 51.25 -52.828125 L 45.71875 -41.765625 C 45.394531 -42.046875 44.910156 -42.378906 44.265625 -42.765625 C 43.617188 -43.160156 42.328125 -43.679688 40.390625 -44.328125 C 38.453125 -44.972656 36.492188 -45.296875 34.515625 -45.296875 C 31.378906 -45.296875 28.566406 -44.785156 26.078125 -43.765625 C 23.585938 -42.753906 21.613281 -41.421875 20.15625 -39.765625 C 18.707031 -38.109375 17.601562 -36.320312 16.84375 -34.40625 C 16.082031 -32.488281 15.703125 -30.539062 15.703125 -28.5625 C 15.703125 -24.226562 17.328125 -20.34375 20.578125 -16.90625 C 23.828125 -13.46875 28.472656 -11.75 34.515625 -11.75 Z M 34.515625 -11.75 "/></g></g></g><g fill="#17a17a" fill-opacity="1"><g transform="translate(277.357882, 255.013898)"><g><path d="M 12.03125 -14.796875 C 14.25 -14.796875 16.128906 -14.023438 17.671875 -12.484375 C 19.210938 -10.941406 19.984375 -9.0625 19.984375 -6.84375 C 19.984375 -4.675781 19.210938 -2.820312 17.671875 -1.28125 C 16.128906 0.257812 14.25 1.03125 12.03125 1.03125 C 9.863281 1.03125 8.007812 0.257812 6.46875 -1.28125 C 4.925781 -2.820312 4.15625 -4.675781 4.15625 -6.84375 C 4.15625 -9.0625 4.925781 -10.941406 6.46875 -12.484375 C 8.007812 -14.023438 9.863281 -14.796875 12.03125 -14.796875 Z M 12.03125 -14.796875 "/></g></g></g></svg>